# xmcd CD database file
#
# Track frame offsets:
#	150
#	13615
#	35003
#	50407
#	80190
#	102743
#	115589
#	131865
#	147560
#	168899
#
# Disc length: 2553 seconds
#
# Revision: 0
# Processed by: cddbd v1.5.2PL0 Copyright (c) Steve Scherf et al.
# Submitted via: CDex 1.77
#
DISCID=8f09f70a
DTITLE=Holmes-Levinson Group - Holms-Levinson Group
DYEAR=2012
DGENRE=Jazz
TTITLE0=I'm An Old Cowhand
TTITLE1=God Bless The Child
TTITLE2=My Heart Holds
TTITLE3=Good News-Bad News
TTITLE4=Lonely Avenue
TTITLE5=Quizas Quizas Quizas
TTITLE6=Forever
TTITLE7=Afuera de Langer's
TTITLE8=Speak Low
TTITLE9=Yellow Moon
EXTD=YEAR: 2012
EXTT0=
EXTT1=
EXTT2=
EXTT3=
EXTT4=
EXTT5=
EXTT6=
EXTT7=
EXTT8=
EXTT9=
PLAYORDER=
